<svg width="28" height="28" viewBox="0 0 444 600" xmlns="http://www.w3.org/2000/svg" xmlns:xlink="http://www.w3.org/1999/xlink" preserveAspectRatio="xMidYMid meet" fill="currentColor">
<defs>
<path id="Main" d="M-371.29,70.7107
C-390.043,89.4639,-415.479,100,-442,100
C-468.521,100,-493.957,89.4641,-512.71,70.7107L-654.132,-70.7107
C-672.885,-89.4641,-698.321,-100,-724.843,-100
C-733.582,-100,-742.283,-98.8542,-750.725,-96.5925
C-752.986,-88.1511,-754.132,-79.4495,-754.132,-70.7107
C-754.132,-44.189,-743.596,-18.7534,-724.843,0L-654.132,70.7107
C-635.378,89.4641,-609.943,100,-583.421,100
C-556.9,100,-531.464,89.4641,-512.71,70.7107L-371.29,-70.7107
C-352.536,-89.4641,-327.1,-100,-300.579,-100
C-274.057,-100,-248.622,-89.4641,-229.868,-70.7107L-138.447,20.7107
C-119.693,39.4641,-94.2576,50,-67.7361,50H67.7361
C94.2576,50,119.693,39.4639,138.447,20.7107L229.868,-70.7107
C248.622,-89.4641,274.057,-100,300.579,-100
C327.1,-100,352.536,-89.4641,371.29,-70.7107L512.71,70.7107
C531.464,89.4641,556.9,100,583.421,100
C609.943,100,635.378,89.4641,654.132,70.7107L724.843,0
C743.596,-18.7534,754.132,-44.189,754.132,-70.7107
C754.132,-79.4495,752.986,-88.1511,750.725,-96.5925
C742.283,-98.8542,733.582,-100,724.843,-100
C698.321,-100,672.885,-89.4639,654.132,-70.7107L512.71,70.7107
C493.957,89.4641,468.521,100,442,100
C415.479,100,390.043,89.4641,371.29,70.7107L-70.7107,-371.29
C-89.4639,-390.043,-100,-415.479,-100,-442
C-100,-468.521,-89.4641,-493.957,-70.7107,-512.71L70.7107,-654.132
C89.4641,-672.885,100,-698.321,100,-724.843
C100,-751.364,89.4641,-776.8,70.7107,-795.553L-70.7107,-936.975
C-89.4639,-955.728,-100,-981.164,-100,-1007.69
C-100,-1034.21,-89.4641,-1059.64,-70.7107,-1078.4L70.7107,-1219.82
C89.4641,-1238.57,100,-1264.01,100,-1290.53
C100,-1299.27,98.8542,-1307.97,96.5925,-1316.41
C88.1511,-1318.67,79.4495,-1319.82,70.7107,-1319.82
C44.189,-1319.82,18.7534,-1309.28,0,-1290.53L-70.7107,-1219.82
C-89.4641,-1201.06,-100,-1175.63,-100,-1149.11
C-100,-1122.59,-89.4641,-1097.15,-70.7107,-1078.4L70.7107,-936.975
C89.4641,-918.221,100,-892.785,100,-866.264
C100,-839.742,89.4641,-814.307,70.7107,-795.553L-70.7107,-654.132
C-89.4641,-635.378,-100,-609.943,-100,-583.421
C-100,-556.9,-89.4641,-531.464,-70.7107,-512.71L70.7107,-371.29
C89.4641,-352.536,100,-327.1,100,-300.579
C100,-274.057,89.4641,-248.622,70.7107,-229.868L-20.7107,-138.447
C-39.4641,-119.693,-50,-94.2576,-50,-67.7361V67.7361
C-50,94.2576,-39.4639,119.693,-20.7107,138.447L70.7107,229.868
C89.4641,248.622,100,274.057,100,300.579
C100,327.1,89.4641,352.536,70.7107,371.29L-70.7107,512.71
C-89.4641,531.464,-100,556.9,-100,583.421
C-100,609.943,-89.4641,635.378,-70.7107,654.132L0,724.843
C18.7534,743.596,44.189,754.132,70.7107,754.132
C79.4495,754.132,88.1511,752.986,96.5925,750.725
C98.8542,742.283,100,733.582,100,724.843
C100,698.321,89.4639,672.885,70.7107,654.132L-70.7107,512.71
C-89.4641,493.957,-100,468.521,-100,442
C-100,415.479,-89.4641,390.043,-70.7107,371.29L371.29,-70.7107
C390.043,-89.4639,415.479,-100,442,-100
C468.521,-100,493.957,-89.4641,512.71,-70.7107L654.132,70.7107
C672.885,89.4641,698.321,100,724.843,100
C733.582,100,742.283,98.8542,750.725,96.5925
C752.986,88.1511,754.132,79.4495,754.132,70.7107
C754.132,44.189,743.596,18.7534,724.843,0L654.132,-70.7107
C635.378,-89.4641,609.943,-100,583.421,-100
C556.9,-100,531.464,-89.4641,512.71,-70.7107L371.29,70.7107
C352.536,89.4641,327.1,100,300.579,100
C274.057,100,248.622,89.4641,229.868,70.7107L138.447,-20.7107
C119.693,-39.4641,94.2576,-50,67.7361,-50H-67.7361
C-94.2576,-50,-119.693,-39.4639,-138.447,-20.7107L-229.868,70.7107
C-248.622,89.4641,-274.057,100,-300.579,100
C-327.1,100,-352.536,89.4641,-371.29,70.7107L-512.71,-70.7107
C-531.464,-89.4641,-556.9,-100,-583.421,-100
C-609.943,-100,-635.378,-89.4641,-654.132,-70.7107L-724.843,0
C-743.596,18.7534,-754.132,44.189,-754.132,70.7107
C-754.132,79.4495,-752.986,88.1511,-750.725,96.5925
C-742.283,98.8542,-733.582,100,-724.843,100
C-698.321,100,-672.885,89.4639,-654.132,70.7107L-512.71,-70.7107
C-493.957,-89.4641,-468.521,-100,-442,-100
C-415.479,-100,-390.043,-89.4641,-371.29,-70.7107L70.7107,371.29
C89.4639,390.043,100,415.479,100,442
C100,468.521,89.4641,493.957,70.7107,512.71L-70.7107,654.132
C-89.4641,672.885,-100,698.321,-100,724.843
C-100,733.582,-98.8542,742.283,-96.5925,750.725
C-88.1511,752.986,-79.4495,754.132,-70.7107,754.132
C-44.189,754.132,-18.7534,743.596,0,724.843L70.7107,654.132
C89.4641,635.378,100,609.943,100,583.421
C100,556.9,89.4641,531.464,70.7107,512.71L-70.7107,371.29
C-89.4641,352.536,-100,327.1,-100,300.579
C-100,274.057,-89.4641,248.622,-70.7107,229.868L20.7107,138.447
C39.4641,119.693,50,94.2576,50,67.7361V-67.7361
C50,-94.2576,39.4639,-119.693,20.7107,-138.447L-70.7107,-229.868
C-89.4641,-248.622,-100,-274.057,-100,-300.579
C-100,-327.1,-89.4641,-352.536,-70.7107,-371.29L70.7107,-512.71
C89.4641,-531.464,100,-556.9,100,-583.421
C100,-609.943,89.4641,-635.378,70.7107,-654.132L-70.7107,-795.553
C-89.4641,-814.307,-100,-839.742,-100,-866.264
C-100,-892.785,-89.4641,-918.221,-70.7107,-936.975L70.7107,-1078.4
C89.4641,-1097.15,100,-1122.59,100,-1149.11
C100,-1175.63,89.4641,-1201.06,70.7107,-1219.82L0,-1290.53
C-18.7534,-1309.28,-44.189,-1319.82,-70.7107,-1319.82
C-79.4495,-1319.82,-88.1511,-1318.67,-96.5925,-1316.41
C-98.8542,-1307.97,-100,-1299.27,-100,-1290.53
C-100,-1264.01,-89.4639,-1238.57,-70.7107,-1219.82L70.7107,-1078.4
C89.4641,-1059.64,100,-1034.21,100,-1007.69
C100,-981.164,89.4641,-955.728,70.7107,-936.975L-70.7107,-795.553
C-89.4641,-776.8,-100,-751.364,-100,-724.843
C-100,-698.321,-89.4639,-672.885,-70.7107,-654.132L70.7107,-512.71
C89.4641,-493.957,100,-468.521,100,-442
C100,-415.479,89.4641,-390.043,70.7107,-371.29Z"/>
<g id="Three">
  <path stroke-width="40" stroke="currentColor" d="M43.1467,750.258
C26.8418,745.583,11.9939,736.836,0,724.843L-30,694.843"/>
  <path stroke-width="24" stroke="rgb(25,212,31)" d="M44.8286,750.725
C27.8733,746.181,12.4121,737.255,0,724.843L-31,693.843"/>
</g>
<g id="Four">
  <path stroke-width="40" stroke="currentColor" d="M99.9846,443.745
C99.5325,469.658,89.0369,494.384,70.7107,512.71L40.7107,542.71
M15,457L-15,427
M-99.9846,440.255
C-99.5325,414.342,-89.0369,389.616,-70.7107,371.29L-40.7107,341.29
M99.9846,585.167
C99.5325,611.08,89.0369,635.806,70.7107,654.132L40.7107,684.132
M15,598.421L-15,568.421
M-99.9846,581.676
C-99.5325,555.763,-89.0369,531.037,-70.7107,512.71L-40.7107,482.71
M99.9846,302.324
C99.5325,328.237,89.0369,352.963,70.7107,371.29L40.7107,401.29
M15,315.579L-15,285.579
M85.7107,214.868L55.7107,244.868
M15,174.157L-15,144.157
M-99.9846,298.833
C-99.5325,272.92,-89.0369,248.194,-70.7107,229.868L-40.7107,199.868
M-99.9846,723.097
C-99.5325,697.184,-89.0369,672.458,-70.7107,654.132L-40.7107,624.132
M-68,50H-31"/>
  <path stroke-width="24" stroke="rgb(25,212,31)" d="M100,442
C100,468.521,89.4641,493.957,70.7107,512.71L39.7107,543.71
M16,458L-16,426
M-100,442
C-100,415.479,-89.4641,390.043,-70.7107,371.29L-39.7107,340.29
M100,583.421
C100,609.943,89.4641,635.378,70.7107,654.132L39.7107,685.132
M16,599.421L-16,567.421
M-100,583.421
C-100,556.9,-89.4641,531.464,-70.7107,512.71L-39.7107,481.71
M100,300.579
C100,327.1,89.4641,352.536,70.7107,371.29L39.7107,402.29
M16,316.579L-16,284.579
M86.7107,213.868L54.7107,245.868
M16,175.157L-16,143.157
M-100,300.579
C-100,274.057,-89.4641,248.622,-70.7107,229.868L-39.7107,198.868
M-100,724.843
C-100,698.321,-89.4641,672.885,-70.7107,654.132L-39.7107,623.132
M-70,50H-29"/>
</g>
</defs>
<title>Quasi-Celtic knot cross</title>
<g transform="translate(222,221)scale(0.28,-0.28)" stroke-linejoin="round" fill="none">
<use xlink:href="#Main" stroke-width="40" stroke="currentColor"/>
<use xlink:href="#Main" stroke-width="24" stroke="rgb(25,212,31)"/>
<use xlink:href="#Three"/>
<use xlink:href="#Three" transform="rotate(-90)"/>
<use xlink:href="#Three" transform="rotate(90)"/>
<use xlink:href="#Four"/>
<use xlink:href="#Four" transform="rotate(90)"/>
<use xlink:href="#Four" transform="rotate(180)"/>
<use xlink:href="#Four" transform="rotate(270)"/>
<path stroke-width="40" stroke="currentColor" d="M-99.9846,-726.588
C-99.5325,-752.501,-89.0369,-777.227,-70.7107,-795.553L-40.7107,-825.553
M-99.9846,-868.009
C-99.5325,-893.923,-89.0369,-918.648,-70.7107,-936.975L-40.7107,-966.975
M-99.9846,-1009.43
C-99.5325,-1035.34,-89.0369,-1060.07,-70.7107,-1078.4L-40.7107,-1108.4
M-99.9846,-1150.85
C-99.5325,-1176.77,-89.0369,-1201.49,-70.7107,-1219.82L-40.7107,-1249.82
M-15,-739.843L15,-709.843
M-15,-881.264L15,-851.264
M-15,-1022.69L15,-992.685
M-15,-1164.11L15,-1134.11
M99.9846,-864.519
C99.5325,-838.605,89.0369,-813.88,70.7107,-795.553L40.7107,-765.553
M99.9846,-1005.94
C99.5325,-980.027,89.0369,-955.301,70.7107,-936.975L40.7107,-906.975
M99.9846,-1147.36
C99.5325,-1121.45,89.0369,-1096.72,70.7107,-1078.4L40.7107,-1048.4
M99.9846,-1288.78
C99.5325,-1262.87,89.0369,-1238.14,70.7107,-1219.82L40.7107,-1189.82
M-43.1467,-1315.94
C-26.8418,-1311.27,-11.9939,-1302.52,0,-1290.53L30,-1260.53"/>
<path stroke-width="24" stroke="rgb(25,212,31)" d="M-100,-724.843
C-100,-751.364,-89.4641,-776.8,-70.7107,-795.553L-39.7107,-826.553
M-100,-866.264
C-100,-892.785,-89.4641,-918.221,-70.7107,-936.975L-39.7107,-967.975
M-100,-1007.69
C-100,-1034.21,-89.4641,-1059.64,-70.7107,-1078.4L-39.7107,-1109.4
M-100,-1149.11
C-100,-1175.63,-89.4641,-1201.06,-70.7107,-1219.82L-39.7107,-1250.82
M-16,-740.843L16,-708.843
M-16,-882.264L16,-850.264
M-16,-1023.69L16,-991.685
M-16,-1165.11L16,-1133.11
M100,-866.264
C100,-839.742,89.4641,-814.307,70.7107,-795.553L39.7107,-764.553
M100,-1007.69
C100,-981.164,89.4641,-955.728,70.7107,-936.975L39.7107,-905.975
M100,-1149.11
C100,-1122.59,89.4641,-1097.15,70.7107,-1078.4L39.7107,-1047.4
M100,-1290.53
C100,-1264.01,89.4641,-1238.57,70.7107,-1219.82L39.7107,-1188.82
M-44.8286,-1316.41
C-27.8733,-1311.87,-12.4121,-1302.94,0,-1290.53L31,-1259.53"/>
</g>
</svg>