<svg width="28" height="28" version="1.1" id="Ebene_1" xmlns="http://www.w3.org/2000/svg" xmlns:xlink="http://www.w3.org/1999/xlink" x="0px" y="0px" viewBox="10.404 6.815 357.867 357.74" enable-background="new 10.404 6.815 357.867 357.74"
	 xml:space="preserve" preserveAspectRatio="xMidYMid meet" fill="currentColor">
<path fill="currentColor" d="M34.432,92.934c5.183-9.369,11.851-17.791,18.54-26.092c7.799-7.63,14.913-16.086,23.836-22.451
	c28.518-23.001,64.679-35.857,101.173-37.576c0.227,41.309,0.75,82.618,0.94,123.934c6.668,0.431,13.357,0.234,20.046,0.319
	c-0.269-41.366-0.7-82.724-0.904-124.097c29.98,1.853,59.418,11.391,84.811,27.436c18.497,11.809,35.546,26.297,48.373,44.229
	c21.806,28.143,34.627,62.968,36.982,98.458c-41.374-0.177-82.74-0.757-124.113-0.905c-0.127,6.66-0.014,13.322,0.198,19.982
	c41.316,0.304,82.633,0.721,123.956,0.892c-1.675,39.181-16.701,77.81-42.604,107.317c-16.355,18.646-36.508,33.99-59.085,44.293
	c-20.592,9.531-43.099,14.913-65.761,15.882c-0.34-41.31-0.765-82.619-0.92-123.942c-6.682-0.134-13.364-0.169-20.053-0.184
	c0.24,41.323,0.538,82.646,0.947,123.97c-43.65-2.438-85.948-21.87-116.729-52.807c-31.261-30.766-50.834-73.305-53.302-117.153
	c41.337,0.17,82.668,0.602,123.998,0.835c-0.176-6.683,0.12-13.386-0.367-20.068c-41.331-0.191-82.654-0.644-123.992-0.955
	C12.101,145.797,19.815,117.506,34.432,92.934z"/>
<path fill="currentColor" d="M43.002,93.626c20.803-34.054,54.454-59.969,92.651-71.509c11.265-3.104,22.699-6.478,34.472-6.556
	c0.467,30.716,0.729,61.455,0.827,92.186c-0.07,6.844,0.531,13.696,0.007,20.527c0.121,2.623-3.125,2.376-4.928,2.439
	c-7.998-0.318-16.009,0.354-23.993-0.346c-0.509-21.439-0.453-42.893-0.544-64.339c0.057-3.945-0.077-7.899-0.558-11.816
	c-14.645,5-28.059,13.04-40.291,22.401c-12.848,11.194-24.473,23.992-32.831,38.927c-3.748,6.943-7.686,13.951-9.341,21.743
	c22.189,0.99,44.399,0.559,66.603,0.983c16.263-0.127,32.52,0.488,48.791,0.382c8.266,0.177,16.554-0.063,24.819,0.297
	c0.551,9.546,0.742,19.141,0.226,28.695c-2.213,0.148-4.44,0.296-6.653,0.332c-48.069-0.254-96.138-0.848-144.208-0.961
	c-9.574-0.424-19.163,0.184-28.729-0.516c-0.297-5.516,0.658-10.982,1.853-16.348C25.069,130.241,32.345,110.916,43.002,93.626z"/>
<path fill="#FFFFFF" d="M68.974,129.993c7.127-14.807,16.433-28.708,28.334-40.114c10.684-10.076,23.094-18.215,36.345-24.508
	c0.326,21.736,0.432,43.479,0.602,65.216C112.497,130.241,90.724,130.517,68.974,129.993z"/>
<path fill="currentColor" d="M20.296,211.692c-0.594-3.21-0.778-6.478-0.834-9.73c23.419,0.425,46.839,0.623,70.258,0.637
	c9.906-0.247,19.799,0.764,29.698,0.41c4.907,0.057,9.907-0.572,14.736,0.523c1.075,2.064,0.707,4.497,0.792,6.746
	c-0.254,7.198,0.169,14.396-0.219,21.588c-16.879,0.785-33.786-0.128-50.664,0.077c-8.302,0.17-16.681-1.039-24.912,0.573
	c5.742,17.96,16.822,33.679,29.048,47.814c5.939,6.887,13.471,12.056,20.492,17.734c10.38,7.806,22.02,13.902,34.203,18.363
	c0.87-8.252,0.262-16.553,0.375-24.826c-0.523-32.527-0.474-65.062-0.792-97.581c-0.169-6.081-0.233-12.155,0.057-18.229
	c9.532-0.693,19.156-0.587,28.681,0.254c0.834,8.556,0.29,17.162,0.46,25.746c0.474,44.781,0.75,89.563,1.018,134.35
	c-0.014,6.563,0.445,13.117-0.056,19.672c-30.746-2.998-60.253-15.337-85.001-33.665c-9.504-6.406-17.112-15.075-25.215-23.08
	c-5.098-4.957-9.001-10.925-13.124-16.674C34.523,261.374,24.652,236.992,20.296,211.692z"/>
<path fill="currentColor" d="M206.859,148.053c-0.438-44.096-0.559-88.198-1.067-132.293c14.036,0.714,27.719,4.667,40.878,9.412
	c21.595,7.75,41.16,20.443,58.188,35.702c30.172,27.979,50.184,66.885,54.588,107.862c-6.929,0.707-13.88,0.233-20.824,0.332
	c-29.231-0.197-58.456-0.488-87.681-0.636c-2.205-0.057-4.391-0.233-6.59-0.396c-0.461-9.511-0.905-19.093-0.078-28.589
	c10.465-0.58,20.944,0.141,31.417,0.034c14.757-0.176,29.522,0.574,44.271,0.178c-3.351-11.823-9.871-22.444-16.595-32.619
	c-6.726-10.274-15.911-18.583-24.679-27.068c-12.664-10.869-27.352-19.644-43.226-24.884c-0.063,38.998,0.559,78.002,0.729,117.005
	c-0.134,7.898,0.382,15.825-0.205,23.708c-9.539,0.106-19.142,0.616-28.638-0.438C206.782,179.596,207.171,163.821,206.859,148.053z
	"/>
<path fill="#FFFFFF" d="M135.491,304.995c-28.617-13.103-52.326-36.826-65.429-65.443c21.666-0.014,43.325,0.403,64.997,0.481
	C135.117,261.685,135.647,283.344,135.491,304.995z"/>
<path fill="#FFFFFF" d="M243.757,131.394c-0.191-21.716-0.495-43.431-0.531-65.146c10.077,4.928,19.672,10.847,28.469,17.833
	c6.526,5.819,12.721,12.014,18.604,18.491c7.34,8.966,13.406,18.908,18.562,29.281C287.158,131.804,265.458,131.612,243.757,131.394
	z"/>
<path fill="#FFFFFF" d="M179.41,195.754c0.063-6.71-0.057-13.421-0.113-20.138c6.633,0.057,13.272,0.092,19.898,0.127
	c0.312,6.718,0.213,13.449,0.205,20.174C192.73,195.811,186.07,195.626,179.41,195.754z"/>
<path fill="currentColor" d="M180.138,232.233c-0.799-9.496-0.757-19.07-0.212-28.581c9.765-0.347,19.537-0.432,29.303-0.014
	c14.375,0.332,28.751,0.113,43.126,0.361c16.271,0.43,32.542-0.284,48.805,0.466c19.559,0.354,39.145-0.312,58.683,0.799
	c-2.044,20.032-7.56,39.704-16.221,57.884c-12.579,25.505-31.416,48.119-55.147,63.944c-22.353,15.704-48.705,25.371-75.76,28.778
	c-1.329,0.057-2.85,0.262-3.924-0.714c-0.389-1.591-0.41-3.238-0.438-4.864c0.077-12.977-0.07-25.966-0.382-38.948
	c0.071-18.837-0.128-37.675-0.297-56.512c-0.163-4.73-0.17-9.476,0.452-14.171c9.383,0.29,18.788-0.247,28.15,0.517
	c0.764,5.939,0.594,11.922,0.601,17.897c0.155,19.232,0.148,38.473,0.58,57.698c2.906-0.572,5.806-1.307,8.5-2.559
	c11.666-5.459,23.164-11.654,32.873-20.244c4.115-3.776,8.739-7.029,12.331-11.356c2.391-2.885,4.908-5.656,7.39-8.464
	c5.53-6.224,9.645-13.507,13.797-20.669c3.272-6.258,6.787-12.558,8.088-19.587c-14.433-0.743-28.885-0.262-43.331-0.58
	c-26.163-0.354-52.333-0.262-78.496-0.572C192.441,232.742,186.275,232.884,180.138,232.233z"/>
<path fill="#FFFFFF" d="M245.198,305.851c-0.523-21.638-0.402-43.282-0.679-64.927c21.667,0.07,43.325,0.389,64.983,0.538
	C296.888,269.83,273.469,293.081,245.198,305.851z"/>
</svg>