<svg width="28" height="28" id="svg" xmlns="http://www.w3.org/2000/svg" xmlns:xlink="http://www.w3.org/1999/xlink" viewBox="0, 0, 400,400" preserveAspectRatio="xMidYMid meet" fill="currentColor"><g id="svgg"><path id="path0" d="M190.343 31.545 C 66.638 37.132,-11.604 168.756,42.243 280.692 C 98.545 397.732,259.668 413.423,337.852 309.481 C 425.929 192.386,337.050 24.919,190.343 31.545 M188.377 47.174 L 191.739 51.271 191.739 124.771 L 191.739 198.271 117.850 198.271 L 43.962 198.271 40.216 195.101 L 36.471 191.931 36.716 189.433 C 44.044 114.540,102.177 54.136,176.855 43.819 C 185.308 42.652,184.463 42.405,188.377 47.174 M219.045 43.612 C 286.754 52.501,341.169 101.246,357.172 167.348 C 358.867 174.345,360.476 184.205,360.553 188.065 L 360.615 191.116 356.071 194.694 L 351.526 198.271 278.549 198.271 L 205.572 198.271 205.573 124.784 L 205.575 51.297 208.873 47.166 C 212.665 42.418,211.922 42.677,219.045 43.612 M191.739 285.293 L 191.739 358.866 188.603 363.103 C 184.987 367.989,185.786 367.702,178.406 366.761 C 103.118 357.155,43.700 295.930,36.703 220.749 L 36.453 218.060 40.225 214.909 L 43.996 211.758 117.867 211.739 L 191.739 211.720 191.739 285.293 M356.273 214.466 L 361.258 217.213 361.005 219.942 C 353.910 296.614,294.259 357.718,217.468 366.972 C 212.443 367.578,212.633 367.663,208.890 363.116 L 205.572 359.085 205.572 285.402 L 205.572 211.720 278.430 211.720 L 351.288 211.720 356.273 214.466 " stroke="none" fill="currentColor" fill-rule="evenodd"></path></g></svg>